PathFileType	4	(X/Y/Z)	/Users/itak/Documents/Research/Walk-IL/dataset/trc/00347_00011.trc
DataRate	CameraRate	NumFrames	NumMarkers	Units	OrigDataRate	OrigDataStartFrame	OrigNumFrames
100.000000	100.000000	4	53	mm	100.000000	640	732
Frame#	Time	RPSI			LPSI			STRN			T10			C7			CLAV			RBAK			LBAK			LSHO			LUPA			LAEL			LAOL			LWTS			LWPS			LFRA			LIFD			LHPS			LHTS			RSHO			RUPA			RAEL			RAOL			RWTS			RWPS			RFRA			RHTS			RHPS			RBHD			LFHD			RFHD			LBHD			LHIP			RHIP			RASI			LASI			LKNE			LTHI			LANK			LTIP			LTOE			LMT1			LMT5			LHEE			RKNE			RANK			RTIP			RTOE			RMT1			RMT5			RHEE			L3			RIFD			RTHI			
		X1	Y1	Z1	X2	Y2	Z2	X3	Y3	Z3	X4	Y4	Z4	X5	Y5	Z5	X6	Y6	Z6	X7	Y7	Z7	X8	Y8	Z8	X9	Y9	Z9	X10	Y10	Z10	X11	Y11	Z11	X12	Y12	Z12	X13	Y13	Z13	X14	Y14	Z14	X15	Y15	Z15	X16	Y16	Z16	X17	Y17	Z17	X18	Y18	Z18	X19	Y19	Z19	X20	Y20	Z20	X21	Y21	Z21	X22	Y22	Z22	X23	Y23	Z23	X24	Y24	Z24	X25	Y25	Z25	X26	Y26	Z26	X27	Y27	Z27	X28	Y28	Z28	X29	Y29	Z29	X30	Y30	Z30	X31	Y31	Z31	X32	Y32	Z32	X33	Y33	Z33	X34	Y34	Z34	X35	Y35	Z35	X36	Y36	Z36	X37	Y37	Z37	X38	Y38	Z38	X39	Y39	Z39	X40	Y40	Z40	X41	Y41	Z41	X42	Y42	Z42	X43	Y43	Z43	X44	Y44	Z44	X45	Y45	Z45	X46	Y46	Z46	X47	Y47	Z47	X48	Y48	Z48	X49	Y49	Z49	X50	Y50	Z50	X51	Y51	Z51	X52	Y52	Z52	X53	Y53	Z53	

641	6.4	322.4877014160156	977.574462890625	926.8756713867188	306.406494140625	977.6354370117188	1055.296508789062	95.49056243896484	1225.219482421875	975.0238037109375	332.2960205078125	1153.88916015625	1002.949035644531	293.158203125	1402.582763671875	1017.186950683594	138.9252014160156	1350.27197265625	985.5396728515625	353.3657531738281	1265.2607421875	954.7916870117188	286.8686828613281	1362.532104492188	1118.334106445312	196.1343994140625	1383.894165039062	1159.935668945312	190.9767608642578	1263.410278320312	1229.37109375	134.6707458496094	1065.71533203125	1243.995849609375	202.4358367919922	1038.347778320312	1201.03857421875	-16.87934875488281	867.595458984375	1173.216430664062	8.401342391967773	841.1666259765625	1231.410034179688	92.62546539306641	967.6607055664062	1245.867309570312	-83.5631103515625	724.052490234375	1155.290161132812	-14.30290508270264	774.9357299804688	1220.43896484375	-59.37429809570312	800.4586791992188	1182.009399414062	263.5433959960938	1392.964721679688	847.2049560546875	288.0809020996094	1330.725463867188	785.7273559570312	313.8188781738281	1067.225341796875	742.25439453125	334.4416809082031	1057.063232421875	834.2072143554688	200.8349914550781	837.4383544921875	755.66357421875	248.6262969970703	825.29248046875	696.6412963867188	293.6675109863281	999.302978515625	724.5100708007812	176.3409576416016	736.4201049804688	732.2741088867188	234.8415222167969	740.1502075195312	693.7853393554688	261.2986450195312	1609.764038085938	923.1793823242188	75.26121520996094	1622.597778320312	1019.215454101562	98.13346099853516	1622.021118164062	920.944580078125	254.3481750488281	1605.110107421875	1068.935546875	209.3797454833984	922.0767211914062	1149.974853515625	253.2734375	927.9588623046875	810.6627197265625	144.5338745117188	958.7039184570312	841.7222900390625	99.00003814697266	946.8843994140625	1076.557495117188	154.3104705810547	465.2471008300781	1138.706298828125	155.4915771484375	604.1328125	1144.592529296875	205.3158569335938	44.91029739379883	1123.744262695312	176.50244140625	247.3114471435547	1143.928955078125	-4.52470874786377	44.10455703735352	1072.788940429688	60.78616333007812	32.49899291992188	1026.643310546875	80.24314117431641	41.14268493652344	1140.095825195312	234.0952606201172	38.28048324584961	1054.429321289062	161.1907348632812	466.5907287597656	780.208740234375	205.3480682373047	53.86627197265625	764.9127807617188	151.8152618408203	352.9096069335938	778.3981323242188	11.30513191223145	61.06565856933594	810.5595092773438	67.52268981933594	45.25352096557617	848.4827270507812	104.222053527832	47.88993453979492	741.2288818359375	254.9750823974609	47.895263671875	812.2191162109375	316.3155212402344	1034.154296875	988.2871704101562	197.2590026855469	665.3202514648438	744.4927368164062	166.3882141113281	730.0460815429688	778.4503173828125	
642	6.41	320.1019592285156	977.0952758789062	924.7628173828125	304.5662536621094	977.4313354492188	1053.19384765625	93.95195007324219	1224.93212890625	974.023681640625	330.6589965820312	1153.410034179688	1000.331909179688	291.8019409179688	1402.15478515625	1015.40771484375	137.3172302246094	1350.092407226562	984.5382080078125	351.5812683105469	1264.89501953125	952.29345703125	286.1536560058594	1361.816162109375	1116.483642578125	195.6255950927734	1383.134887695312	1158.688232421875	191.0125427246094	1262.377197265625	1227.831420898438	134.5429077148438	1064.609252929688	1242.015258789062	202.1805419921875	1037.428100585938	1198.744873046875	-17.13868713378906	866.8505249023438	1170.464477539062	8.021187782287598	840.1983642578125	1228.59423828125	92.46041107177734	966.63671875	1243.549560546875	-83.85191345214844	723.4326782226562	1151.787719726562	-14.6743745803833	773.9891967773438	1217.307250976562	-59.73587417602539	799.8277587890625	1178.749877929688	261.16455078125	1392.904174804688	845.5115356445312	285.12841796875	1330.633056640625	783.7636108398438	309.7984313964844	1066.922729492188	740.393798828125	331.2402038574219	1056.916625976562	832.16796875	197.7127532958984	836.70556640625	754.9718017578125	245.024169921875	824.7852172851562	695.547607421875	289.585205078125	999.006103515625	722.9025268554688	173.5579681396484	735.5457153320312	731.9950561523438	231.6951599121094	739.512451171875	692.9586181640625	259.792236328125	1609.505737304688	922.1088256835938	73.94231414794922	1622.327270507812	1018.754638671875	96.54281616210938	1621.849365234375	920.4152221679688	253.1986389160156	1604.71435546875	1067.9423828125	207.5841217041016	922.2346801757812	1148.365844726562	250.5968017578125	926.9285888671875	809.0169677734375	141.8562164306641	957.8817138671875	840.1986694335938	96.08447265625	947.6246948242188	1075.501831054688	153.1489105224609	465.2384033203125	1137.915893554688	154.3180389404297	604.2495727539062	1143.708984375	205.3184051513672	44.93902587890625	1123.690551757812	176.0735778808594	247.4776153564453	1143.32373046875	-4.437217712402344	44.19275665283203	1072.885620117188	60.73208618164062	32.49847030639648	1026.607543945312	80.25086212158203	41.15720748901367	1140.107788085938	234.1138305664062	38.28300094604492	1054.363647460938	160.5274200439453	465.460693359375	779.6381225585938	202.5242767333984	53.15338516235352	764.490478515625	150.4004821777344	352.1398620605469	778.2232055664062	8.70326042175293	57.23534774780273	811.0062255859375	64.97686767578125	42.85891342163086	849.3218994140625	101.3535079956055	45.7644157409668	741.3353881835938	252.3327178955078	47.68860244750977	811.5108032226562	314.2780151367188	1033.709106445312	985.9749145507812	194.994873046875	664.5758666992188	744.1692504882812	164.5431518554688	729.0484008789062	777.1561279296875	
643	6.42	317.7976684570312	976.5662841796875	922.6117553710938	302.8118286132812	977.2152099609375	1051.0400390625	92.44073486328125	1224.704345703125	972.9105224609375	329.095947265625	1152.956420898438	997.6243286132812	290.5060729980469	1401.765869140625	1013.541320800781	135.7712249755859	1349.948120117188	983.44580078125	349.8632202148438	1264.560546875	949.7191772460938	285.4976501464844	1361.140625	1114.537719726562	195.1728210449219	1382.357666015625	1157.352416992188	191.1508941650391	1261.342529296875	1226.162841796875	134.5992584228516	1063.480102539062	1239.89453125	202.1185913085938	1036.495239257812	1196.283325195312	-17.13451385498047	865.9418334960938	1167.744995117188	7.969306945800781	839.1072998046875	1225.813598632812	92.53254699707031	965.5715942382812	1241.139526367188	-83.75289916992188	722.5679321289062	1148.431640625	-14.66669464111328	772.8795166015625	1214.244140625	-59.72180938720703	798.8939208984375	1175.583984375	258.8582458496094	1392.882202148438	843.7413940429688	282.2382202148438	1330.572998046875	781.7210693359375	305.6880493164062	1066.649658203125	738.3711547851562	328.0276489257812	1056.765869140625	829.9246215820312	194.4382019042969	836.0621948242188	754.1901245117188	241.194580078125	824.3534545898438	694.3241577148438	285.3897399902344	998.7530517578125	721.1608276367188	170.5581817626953	734.77587890625	731.6084594726562	228.2583770751953	738.9541015625	691.9751586914062	258.3259582519531	1609.29296875	920.9681396484375	72.68891906738281	1622.063720703125	1018.263488769531	95.00377655029297	1621.720703125	919.831787109375	252.1256866455078	1604.335571289062	1066.8837890625	205.7371063232422	922.3331909179688	1146.599487304688	247.9703521728516	925.9071044921875	807.28125	139.25341796875	957.1149291992188	838.5537719726562	93.38813018798828	948.2884521484375	1074.27978515625	151.9359130859375	465.2707824707031	1136.973266601562	153.0973815917969	604.3770751953125	1142.656372070312	205.3108825683594	44.9837646484375	1123.616333007812	175.5910339355469	247.6378173828125	1142.623291015625	-4.365711688995361	44.2661247253418	1072.955078125	60.69617462158203	32.47541427612305	1026.5595703125	80.26396942138672	41.19370651245117	1140.1181640625	234.1261749267578	38.28830337524414	1054.284301757812	159.6192321777344	464.4271240234375	779.170654296875	200.7214050292969	52.69479751586914	764.3164672851562	149.13330078125	351.3831481933594	778.134521484375	7.1065993309021	53.45954132080078	811.4597778320312	63.3956184387207	40.58641052246094	850.2313232421875	99.5223388671875	43.86496353149414	741.5272216796875	250.6510925292969	47.73099136352539	811.1011352539062	312.3731994628906	1033.31494140625	983.6392822265625	192.4696044921875	663.927978515625	743.7050170898438	162.4989318847656	728.1085815429688	775.8609619140625	
644	6.43	315.578857421875	976.0098266601562	920.4404907226562	301.1379699707031	976.989013671875	1048.863159179688	90.95376586914062	1224.54345703125	971.6970825195312	327.5984802246094	1152.547241210938	994.8667602539062	289.2622375488281	1401.431030273438	1011.603393554688	134.2817230224609	1349.844482421875	982.2758178710938	348.209228515625	1264.2734375	947.0977172851562	284.886962890625	1360.537231445312	1112.515747070312	194.7633514404297	1381.578857421875	1155.942016601562	191.363037109375	1260.324096679688	1224.375244140625	134.8269348144531	1062.348510742188	1237.640502929688	202.2125396728516	1035.555541992188	1193.658569335938	-16.87521171569824	864.8783569335938	1165.067138671875	8.237585067749023	837.9043579101562	1223.077026367188	92.82222747802734	964.4758911132812	1238.640991210938	-83.26819610595703	721.4661865234375	1145.239990234375	-14.28422451019287	771.6239013671875	1211.26513671875	-59.34811782836914	797.665283203125	1172.519409179688	256.6305236816406	1392.900634765625	841.912109375	279.4245910644531	1330.55615234375	779.6223754882812	301.5001220703125	1066.419799804688	736.2031860351562	324.8323364257812	1056.625610351562	827.4873046875	191.0155639648438	835.52734375	753.322998046875	237.1366271972656	824.013671875	692.9750366210938	281.0885314941406	998.5550537109375	719.2982788085938	167.3293609619141	734.1318359375	731.1095581054688	224.5174560546875	738.4991455078125	690.8316040039062	256.8906555175781	1609.1376953125	919.7703247070312	71.49565124511719	1621.827758789062	1017.734130859375	93.51483917236328	1621.656372070312	919.1947021484375	251.1092681884766	1603.972900390625	1065.767700195312	203.8637237548828	922.3576049804688	1144.6884765625	245.3700103759766	924.9356689453125	805.4679565429688	136.7203826904297	956.4476318359375	836.806640625	90.99883270263672	948.8333740234375	1072.89501953125	150.6615600585938	465.3499145507812	1135.875854492188	151.8202667236328	604.5076293945312	1141.4287109375	205.2909698486328	45.04728317260742	1123.51416015625	175.0390472412109	247.8005981445312	1141.843383789062	-4.317392349243164	44.31834411621094	1072.992309570312	60.67700576782227	32.42715835571289	1026.496215820312	80.27824401855469	41.24956130981445	1140.119506835938	234.1301727294922	38.29911041259766	1054.182861328125	158.5860595703125	463.5279846191406	778.8034057617188	199.7150573730469	52.435546875	764.32421875	148.0638122558594	350.6785888671875	778.0864868164062	6.277169227600098	50.13827133178711	811.7913818359375	62.54671096801758	38.66339492797852	851.052978515625	98.4990234375	42.31442642211914	741.7216796875	249.677490234375	47.89249038696289	810.9561157226562	310.6163024902344	1032.995849609375	981.3050537109375	189.6762390136719	663.3963012695312	743.0958251953125	160.263671875	727.2554321289062	774.594970703125	
